<?xml version="1.0" encoding="UTF-8" standalone="no"?>
<!-- Created with Inkscape (http://www.inkscape.org/) -->

<svg
   width="1200"
   height="200"
   viewBox="0 0 317.5 52.916666"
   version="1.1"
   id="svg1"
   xmlns="http://www.w3.org/2000/svg"
   xmlns:svg="http://www.w3.org/2000/svg">
  <defs
     id="defs1" />
  <g
     id="layer1">
    <path
       id="rect1"
       style="fill:#2d3142;stroke-width:0.0394429"
       d="M 13.229167,0 A 13.229153,13.229161 0 0 0 8.6402995,0.83974202 H 308.90466 A 13.229154,13.229154 0 0 0 304.27083,0 Z M 6.7959676,1.6800008 A 13.229153,13.229161 0 0 0 5.4637492,2.5197428 H 312.03677 A 13.229154,13.229154 0 0 0 310.7185,1.6800008 Z M 4.4235026,3.3600016 A 13.229153,13.229161 0 0 0 3.5749756,4.1997437 H 313.93691 A 13.229154,13.229154 0 0 0 313.0796,3.3600016 Z M 2.8613241,5.0394857 A 13.229153,13.229161 0 0 0 2.2494751,5.8797445 H 315.26913 A 13.229154,13.229154 0 0 0 314.65935,5.0394857 Z M 1.7192749,6.7194865 A 13.229153,13.229161 0 0 0 1.2908773,7.5597453 H 316.22153 A 13.229154,13.229154 0 0 0 315.78589,6.7194865 Z M 0.93224284,8.3994873 A 13.229153,13.229161 0 0 0 0.62115072,9.2392293 H 316.88247 a 13.229154,13.229154 0 0 0 -0.29714,-0.839742 z M 0.39584147,10.079488 A 13.229153,13.229161 0 0 0 0.21910807,10.91923 H 317.29639 a 13.229154,13.229154 0 0 0 -0.17725,-0.839742 z M 0.08629964,11.759489 A 13.229153,13.229161 0 0 0 0.03307292,12.599231 H 317.48295 a 13.229154,13.229154 0 0 0 -0.0661,-0.839742 z M 0,13.438973 v 0.840259 h 317.5 v -0.840259 z m 0,1.680001 v 0.840259 h 317.5 v -0.840259 z m 0,1.680001 v 0.839742 h 317.5 v -0.839742 z m 0,1.68 v 0.839742 h 317.5 v -0.839742 z m 0,1.680001 v 0.839742 h 317.5 v -0.839742 z m 0,1.679484 v 0.840259 H 317.5 V 21.83846 Z m 0,1.680001 v 0.840259 h 317.5 v -0.840259 z m 0,1.680001 v 0.839742 h 317.5 v -0.839742 z m 0,1.680001 v 0.839742 h 317.5 v -0.839742 z m 0,1.679484 v 0.840259 h 317.5 v -0.840259 z m 0,1.680001 v 0.840258 h 317.5 v -0.840258 z m 0,1.68 v 0.839742 h 317.5 v -0.839742 z m 0,1.680001 v 0.839742 h 317.5 v -0.839742 z m 0,1.680001 v 0.839742 H 317.5 V 35.27795 Z m 0,1.679484 v 0.840259 h 317.5 v -0.840259 z m 0,1.680001 v 0.840259 h 317.5 v -0.840259 z m 0.03307292,1.680001 a 13.229154,13.229154 0 0 0 0.05322672,0.839742 H 317.4168 a 13.229154,13.229154 0 0 0 0.0661,-0.839742 z m 0.18603515,1.680001 a 13.229154,13.229154 0 0 0 0.1767334,0.839742 H 317.11914 a 13.229154,13.229154 0 0 0 0.17725,-0.839742 z m 0.40204265,1.68 a 13.229154,13.229154 0 0 0 0.31109212,0.839742 H 316.58533 a 13.229154,13.229154 0 0 0 0.29714,-0.839742 z M 1.2908773,45.356921 A 13.229154,13.229154 0 0 0 1.7192749,46.19718 H 315.78589 a 13.229154,13.229154 0 0 0 0.43564,-0.840259 z m 0.9585978,1.680001 a 13.229154,13.229154 0 0 0 0.611849,0.840259 H 314.65935 a 13.229154,13.229154 0 0 0 0.60978,-0.840259 z m 1.3255005,1.680001 a 13.229154,13.229154 0 0 0 0.8490438,0.839742 H 313.0796 a 13.229154,13.229154 0 0 0 0.85731,-0.839742 z m 1.8887736,1.680001 a 13.229154,13.229154 0 0 0 1.3322184,0.839742 H 310.7185 a 13.229154,13.229154 0 0 0 1.31827,-0.839742 z m 3.1765503,1.680001 a 13.229154,13.229154 0 0 0 4.5888675,0.839742 H 304.27083 a 13.229154,13.229154 0 0 0 4.63383,-0.839742 z" />
  </g>
</svg>
